<svg width="31" height="29" viewBox="0 0 31 29" fill="none" xmlns="http://www.w3.org/2000/svg">
<path d="M1.86362 12.5026C1.84787 12.3136 1.87154 12.1233 1.9331 11.944C1.99467 11.7646 2.0928 11.5999 2.22129 11.4604C2.34978 11.3209 2.50582 11.2096 2.67955 11.1335C2.85328 11.0575 3.0409 11.0183 3.23056 11.0184H5.85139C6.21484 11.0184 6.5634 11.1628 6.82039 11.4198C7.07739 11.6768 7.22176 12.0254 7.22176 12.3888V26.0925C7.22176 26.456 7.07739 26.8045 6.82039 27.0615C6.5634 27.3185 6.21484 27.4629 5.85139 27.4629H4.37139C4.02765 27.4629 3.69647 27.3337 3.44352 27.1009C3.19058 26.8681 3.03435 26.5488 3.00582 26.2063L1.86362 12.5026ZM11.3329 12.6451C11.3329 12.0729 11.6892 11.5604 12.2065 11.3158C13.3364 10.7834 15.261 9.71248 16.1292 8.264C17.2481 6.39824 17.4591 3.02645 17.4934 2.25424C17.4982 2.14598 17.4954 2.03772 17.5098 1.93083C17.6955 0.592669 20.278 2.15558 21.2681 3.80824C21.8059 4.70447 21.8744 5.8823 21.8183 6.8025C21.7573 7.78574 21.4688 8.73678 21.1858 9.68097L20.5829 11.6934H28.0219C28.2337 11.6933 28.4425 11.7424 28.6321 11.8366C28.8217 11.9309 28.9868 12.0678 29.1146 12.2366C29.2424 12.4054 29.3294 12.6016 29.3686 12.8096C29.4079 13.0177 29.3984 13.232 29.3409 13.4358L25.6615 26.4653C25.5802 26.7526 25.4074 27.0056 25.1692 27.1857C24.9309 27.3658 24.6404 27.4631 24.3418 27.4629H12.7032C12.3398 27.4629 11.9912 27.3185 11.7342 27.0615C11.4773 26.8045 11.3329 26.456 11.3329 26.0925V12.6451Z" fill="#483103" stroke="#483103" stroke-width="2.74074" stroke-linecap="round" stroke-linejoin="round"/>
</svg>
