<svg width="22" height="22" viewBox="0 0 22 22" fill="none" xmlns="http://www.w3.org/2000/svg">
<g id="vuesax/bulk/archive-tick">
<g id="archive-tick">
<path id="Vector" d="M15.2827 2.03174H6.71383C4.82938 2.03174 3.28271 3.57841 3.28271 5.46285V17.9873C3.28271 19.5873 4.42938 20.2628 5.83383 19.4895L10.1716 17.0806C10.6338 16.8229 11.3805 16.8229 11.8338 17.0806L16.1716 19.4895C17.576 20.2717 18.7227 19.5962 18.7227 17.9873V5.46285C18.7138 3.57841 17.176 2.03174 15.2827 2.03174Z" fill="url(#paint0_linear_1055_3486)"/>
<path id="Vector_2" d="M10.1892 12.1113C10.0203 12.1113 9.85141 12.0491 9.71807 11.9157L8.38474 10.5824C8.12696 10.3246 8.12696 9.89794 8.38474 9.64017C8.64252 9.38239 9.06918 9.38239 9.32696 9.64017L10.1892 10.5024L13.2736 7.41794C13.5314 7.16016 13.9581 7.16016 14.2159 7.41794C14.4736 7.67572 14.4736 8.10239 14.2159 8.36016L10.6603 11.9157C10.527 12.0491 10.3581 12.1113 10.1892 12.1113Z" fill="#242424"/>
</g>
</g>
<defs>
<linearGradient id="paint0_linear_1055_3486" x1="3.28271" y1="16.3725" x2="20.4235" y2="10.0127" gradientUnits="userSpaceOnUse">
<stop stop-color="#EFE687"/>
<stop offset="0.328152" stop-color="#C09742"/>
<stop offset="0.60818" stop-color="#AC7729"/>
<stop offset="0.741407" stop-color="#CFB159"/>
<stop offset="0.876021" stop-color="#E2CE72"/>
<stop offset="1" stop-color="#AD7A22"/>
</linearGradient>
</defs>
</svg>
