<svg width="22" height="22" viewBox="0 0 22 22" fill="none" xmlns="http://www.w3.org/2000/svg">
<path opacity="0.4" d="M15.2832 2.03162H6.71431C4.82987 2.03162 3.2832 3.57828 3.2832 5.46273V17.9872C3.2832 19.5872 4.42987 20.2627 5.83431 19.4894L10.1721 17.0805C10.6343 16.8227 11.381 16.8227 11.8343 17.0805L16.1721 19.4894C17.5765 20.2716 18.7232 19.5961 18.7232 17.9872V5.46273C18.7143 3.57828 17.1765 2.03162 15.2832 2.03162Z" fill="#292D32"/>
<path d="M10.1892 12.1114C10.0203 12.1114 9.85141 12.0492 9.71807 11.9158L8.38474 10.5825C8.12696 10.3247 8.12696 9.89807 8.38474 9.64029C8.64252 9.38251 9.06918 9.38251 9.32696 9.64029L10.1892 10.5025L13.2736 7.41806C13.5314 7.16029 13.9581 7.16029 14.2159 7.41806C14.4736 7.67584 14.4736 8.10251 14.2159 8.36029L10.6603 11.9158C10.527 12.0492 10.3581 12.1114 10.1892 12.1114Z" fill="#292D32"/>
</svg>
