<svg width="24" height="25" viewBox="0 0 24 25" fill="none" xmlns="http://www.w3.org/2000/svg">
<path opacity="0.4" d="M19.238 6.2158H18.838L15.458 2.8358C15.188 2.5658 14.748 2.5658 14.468 2.8358C14.198 3.1058 14.198 3.5458 14.468 3.8258L16.858 6.2158H7.13805L9.52805 3.8258C9.79805 3.5558 9.79805 3.1158 9.52805 2.8358C9.25805 2.5658 8.81805 2.5658 8.53805 2.8358L5.16805 6.2158H4.76805C3.86805 6.2158 1.99805 6.2158 1.99805 8.7758C1.99805 9.7458 2.19805 10.3858 2.61805 10.8058C2.85805 11.0558 3.14805 11.1858 3.45805 11.2558C3.74805 11.3258 4.05805 11.3358 4.35805 11.3358H19.638C19.948 11.3358 20.238 11.3158 20.518 11.2558C21.358 11.0558 21.998 10.4558 21.998 8.7758C21.998 6.2158 20.128 6.2158 19.238 6.2158Z" fill="#292D32"/>
<path d="M19.648 11.3359H4.35801C4.05801 11.3359 3.74801 11.3259 3.45801 11.2559L4.71801 18.9359C4.99801 20.6559 5.74801 22.6359 9.07801 22.6359H14.688C18.058 22.6359 18.658 20.9459 19.018 19.0559L20.528 11.2559C20.248 11.3159 19.948 11.3359 19.648 11.3359ZM10.608 17.7959C10.608 18.1859 10.298 18.4959 9.90801 18.4959C9.51801 18.4959 9.20801 18.1859 9.20801 17.7959V14.4959C9.20801 14.1059 9.51801 13.7959 9.90801 13.7959C10.298 13.7959 10.608 14.1059 10.608 14.4959V17.7959ZM14.888 17.7959C14.888 18.1859 14.578 18.4959 14.188 18.4959C13.798 18.4959 13.488 18.1859 13.488 17.7959V14.4959C13.488 14.1059 13.798 13.7959 14.188 13.7959C14.578 13.7959 14.888 14.1059 14.888 14.4959V17.7959Z" fill="#292D32"/>
</svg>
