<svg width="19" height="19" viewBox="0 0 19 19" fill="none" xmlns="http://www.w3.org/2000/svg">
<g id="vuesax/bulk/copy-success">
<g id="copy-success">
<path id="Vector" opacity="0.4" d="M13.5376 1.58325H10.2126C7.48131 1.58325 6.37298 2.66784 6.34131 5.34367H8.78756C12.1126 5.34367 13.6563 6.88742 13.6563 10.2124V12.6587C16.3321 12.627 17.4167 11.5187 17.4167 8.78742V5.46242C17.4167 2.69159 16.3084 1.58325 13.5376 1.58325Z" fill="#292D32"/>
<path id="Vector_2" d="M8.78766 6.33325H5.46266C2.69183 6.33325 1.5835 7.44158 1.5835 10.2124V13.5374C1.5835 16.3083 2.69183 17.4166 5.46266 17.4166H8.78766C11.5585 17.4166 12.6668 16.3083 12.6668 13.5374V10.2124C12.6668 7.44158 11.5585 6.33325 8.78766 6.33325ZM9.72975 10.8062L6.79266 13.7433C6.68183 13.8541 6.53933 13.9095 6.38891 13.9095C6.2385 13.9095 6.096 13.8541 5.98516 13.7433L4.51266 12.2708C4.291 12.0491 4.291 11.6928 4.51266 11.4712C4.73433 11.2495 5.09058 11.2495 5.31225 11.4712L6.381 12.5399L8.92225 9.99867C9.14391 9.777 9.50016 9.777 9.72183 9.99867C9.9435 10.2203 9.95141 10.5845 9.72975 10.8062Z" fill="#292D32"/>
</g>
</g>
</svg>
