<svg width="24" height="24" viewBox="0 0 24 24" fill="none" xmlns="http://www.w3.org/2000/svg">
<path opacity="0.4" d="M22 10.7599C22 10.2899 21.62 9.8999 21.14 9.8999H2.86C2.38 9.8999 2 10.2799 2 10.7599C2 16.6499 6.11 20.7599 12 20.7599C17.89 20.7599 22 16.6399 22 10.7599Z" fill="#292D32"/>
<path d="M12.46 15.9002L15.31 13.0602C15.6 12.7702 15.6 12.2902 15.31 12.0002C15.02 11.7102 14.54 11.7102 14.25 12.0002L12.69 13.5602V3.99023C12.69 3.58023 12.35 3.24023 11.94 3.24023C11.53 3.24023 11.19 3.58023 11.19 3.99023V13.5602L9.61997 12.0002C9.32997 11.7102 8.84997 11.7102 8.55997 12.0002C8.40997 12.1502 8.33997 12.3402 8.33997 12.5302C8.33997 12.7202 8.40997 12.9102 8.55997 13.0602L11.41 15.9002C11.7 16.2002 12.17 16.2002 12.46 15.9002Z" fill="#292D32"/>
</svg>
