<svg width="17" height="16" viewBox="0 0 17 16" fill="none" xmlns="http://www.w3.org/2000/svg">
<path fill-rule="evenodd" clip-rule="evenodd" d="M8.33434 0C6.20731 0 5.94105 0.00918144 5.10554 0.0459072C4.27309 0.082633 3.70078 0.217294 3.20498 0.410104C2.68776 0.612096 2.25011 0.878358 1.81552 1.31601C1.37787 1.7506 1.11161 2.18824 0.909616 2.7024C0.716806 3.20126 0.582145 3.77051 0.545419 4.60296C0.508693 5.44153 0.499512 5.7078 0.499512 7.83483C0.499512 9.96187 0.508693 10.2281 0.545419 11.0636C0.582145 11.8961 0.716806 12.4684 0.909616 12.9642C1.11161 13.4814 1.37787 13.9191 1.81552 14.3537C2.25011 14.7882 2.68776 15.0576 3.20192 15.2565C3.70078 15.4493 4.27002 15.584 5.10248 15.6207C5.93799 15.6574 6.20425 15.6666 8.33128 15.6666C10.4583 15.6666 10.7246 15.6574 11.5601 15.6207C12.3925 15.584 12.9649 15.4493 13.4607 15.2565C13.9748 15.0576 14.4125 14.7882 14.847 14.3537C15.2816 13.9191 15.551 13.4814 15.7499 12.9673C15.9427 12.4684 16.0774 11.8991 16.1141 11.0667C16.1508 10.2312 16.16 9.96493 16.16 7.83789C16.16 5.71086 16.1508 5.4446 16.1141 4.60908C16.0774 3.77663 15.9427 3.20432 15.7499 2.70853C15.5571 2.18824 15.2908 1.7506 14.8532 1.31601C14.4186 0.881419 13.9809 0.612096 13.4668 0.413165C12.9679 0.220355 12.3987 0.0856935 11.5662 0.0489677C10.7276 0.00918144 10.4614 0 8.33434 0ZM8.33432 3.8101C6.11241 3.8101 4.30978 5.61272 4.30978 7.83463C4.30978 10.0565 6.11241 11.8592 8.33432 11.8592C10.5562 11.8592 12.3588 10.0565 12.3588 7.83463C12.3588 5.61272 10.5562 3.8101 8.33432 3.8101ZM8.33432 10.4452C6.89283 10.4452 5.72373 9.27612 5.72373 7.83463C5.72373 6.39314 6.89283 5.22404 8.33432 5.22404C9.7758 5.22404 10.9449 6.39314 10.9449 7.83463C10.9449 9.27612 9.7758 10.4452 8.33432 10.4452ZM12.518 4.59548C13.0352 4.59548 13.4576 4.1762 13.4576 3.65592C13.4576 3.13869 13.0352 2.71635 12.518 2.71635C12.0008 2.71635 11.5785 3.13563 11.5785 3.65592C11.5785 4.17314 11.9977 4.59548 12.518 4.59548Z" fill="#868686"/>
</svg>
