<svg width="29" height="31" viewBox="0 0 29 31" fill="none" xmlns="http://www.w3.org/2000/svg">
<path d="M17.6611 0.904297L22.0188 7.01067L24.8925 6.03085L27.5154 13.7036H28.8337V30.148H0.0559082V13.7036H0.754797V13.6899L1.6428 13.6981L17.6611 0.904297ZM10.8777 13.7036H24.6198L23.1987 9.54722L21.113 10.2146L10.8777 13.7036ZM8.74269 11.5343L19.3096 7.9343L17.1115 4.85096L8.74269 11.5343ZM5.53739 16.4443H2.79665V19.185C3.52354 19.185 4.22066 18.8963 4.73465 18.3823C5.24863 17.8683 5.53739 17.1712 5.53739 16.4443ZM19.2411 21.9258C19.2411 21.2959 19.117 20.6722 18.876 20.0903C18.635 19.5084 18.2817 18.9797 17.8363 18.5343C17.3909 18.0889 16.8622 17.7356 16.2803 17.4946C15.6983 17.2535 15.0747 17.1295 14.4448 17.1295C13.8149 17.1295 13.1912 17.2535 12.6093 17.4946C12.0274 17.7356 11.4987 18.0889 11.0533 18.5343C10.6079 18.9797 10.2546 19.5084 10.0136 20.0903C9.77256 20.6722 9.6485 21.2959 9.6485 21.9258C9.6485 23.1978 10.1538 24.4178 11.0533 25.3173C11.9528 26.2168 13.1727 26.7221 14.4448 26.7221C15.7169 26.7221 16.9368 26.2168 17.8363 25.3173C18.7358 24.4178 19.2411 23.1978 19.2411 21.9258ZM26.0929 27.4073V24.6665C25.3661 24.6665 24.6689 24.9553 24.1549 25.4693C23.641 25.9833 23.3522 26.6804 23.3522 27.4073H26.0929ZM23.3522 16.4443C23.3522 17.1712 23.641 17.8683 24.1549 18.3823C24.6689 18.8963 25.3661 19.185 26.0929 19.185V16.4443H23.3522ZM2.79665 27.4073H5.53739C5.53739 26.6804 5.24863 25.9833 4.73465 25.4693C4.22066 24.9553 3.52354 24.6665 2.79665 24.6665V27.4073Z" fill="#483103"/>
</svg>
