<svg width="25" height="25" viewBox="0 0 25 25" fill="none" xmlns="http://www.w3.org/2000/svg">
<g id="vuesax/bulk/people">
<g id="people">
<path id="Vector" opacity="0.4" d="M18.1072 8.40575C18.0372 8.39575 17.9672 8.39575 17.8972 8.40575C16.3472 8.35575 15.1172 7.08574 15.1172 5.52574C15.1172 3.93574 16.4072 2.63574 18.0072 2.63574C19.5972 2.63574 20.8972 3.92574 20.8972 5.52574C20.8872 7.08574 19.6572 8.35575 18.1072 8.40575Z" fill="#292D32"/>
<path id="Vector_2" opacity="0.4" d="M21.3668 15.3356C20.2468 16.0856 18.6768 16.3656 17.2268 16.1756C17.6068 15.3556 17.8068 14.4457 17.8168 13.4857C17.8168 12.4857 17.5968 11.5357 17.1768 10.7057C18.6568 10.5057 20.2268 10.7856 21.3568 11.5356C22.9368 12.5756 22.9368 14.2856 21.3668 15.3356Z" fill="#292D32"/>
<path id="Vector_3" opacity="0.4" d="M7.01754 8.40575C7.08754 8.39575 7.15754 8.39575 7.22754 8.40575C8.77754 8.35575 10.0075 7.08574 10.0075 5.52574C10.0075 3.93574 8.71754 2.63574 7.11754 2.63574C5.52754 2.63574 4.22754 3.92574 4.22754 5.52574C4.23754 7.08574 5.46754 8.35575 7.01754 8.40575Z" fill="#292D32"/>
<path id="Vector_4" opacity="0.4" d="M7.12726 13.4858C7.12726 14.4558 7.33726 15.3759 7.71726 16.2059C6.30726 16.3559 4.83727 16.0559 3.75727 15.3459C2.17727 14.2959 2.17727 12.5858 3.75727 11.5358C4.82727 10.8158 6.33727 10.5258 7.75727 10.6858C7.34727 11.5258 7.12726 12.4758 7.12726 13.4858Z" fill="#292D32"/>
<path id="Vector_5" d="M12.697 16.5057C12.617 16.4957 12.527 16.4957 12.437 16.5057C10.597 16.4457 9.12695 14.9357 9.12695 13.0757C9.12695 11.1757 10.657 9.63574 12.567 9.63574C14.467 9.63574 16.007 11.1757 16.007 13.0757C16.007 14.9357 14.547 16.4457 12.697 16.5057Z" fill="#292D32"/>
<path id="Vector_6" d="M9.44695 18.5756C7.93695 19.5856 7.93695 21.2456 9.44695 22.2456C11.167 23.3956 13.987 23.3956 15.707 22.2456C17.217 21.2356 17.217 19.5756 15.707 18.5756C13.997 17.4256 11.177 17.4256 9.44695 18.5756Z" fill="#292D32"/>
</g>
</g>
</svg>
