<svg width="15" height="15" viewBox="0 0 15 15" fill="none" xmlns="http://www.w3.org/2000/svg">
<path d="M8.89999 6.3999V1.3999C8.89999 1.13469 8.79464 0.880332 8.6071 0.692796C8.41956 0.505259 8.16521 0.399902 7.89999 0.399902C7.63478 0.399902 7.38042 0.505259 7.19289 0.692796C7.00535 0.880332 6.89999 1.13469 6.89999 1.3999V6.3999H1.89999C1.63478 6.3999 1.38042 6.50526 1.19289 6.6928C1.00535 6.88033 0.899994 7.13469 0.899994 7.3999C0.899994 7.66512 1.00535 7.91947 1.19289 8.10701C1.38042 8.29455 1.63478 8.3999 1.89999 8.3999H6.89999V13.3999C6.89999 13.6651 7.00535 13.9195 7.19289 14.107C7.38042 14.2945 7.63478 14.3999 7.89999 14.3999C8.16521 14.3999 8.41956 14.2945 8.6071 14.107C8.79464 13.9195 8.89999 13.6651 8.89999 13.3999V8.3999H13.9C14.1652 8.3999 14.4196 8.29455 14.6071 8.10701C14.7946 7.91947 14.9 7.66512 14.9 7.3999C14.9 7.13469 14.7946 6.88033 14.6071 6.6928C14.4196 6.50526 14.1652 6.3999 13.9 6.3999H8.89999Z" fill="white"/>
</svg>
