<svg width="25" height="25" viewBox="0 0 25 25" fill="none" xmlns="http://www.w3.org/2000/svg">
<path opacity="0.4" d="M12.8535 2.63574C10.2335 2.63574 8.10352 4.76574 8.10352 7.38574C8.10352 9.95574 10.1135 12.0357 12.7335 12.1257C12.8135 12.1157 12.8935 12.1157 12.9535 12.1257C12.9735 12.1257 12.9835 12.1257 13.0035 12.1257C13.0135 12.1257 13.0135 12.1257 13.0235 12.1257C15.5835 12.0357 17.5935 9.95574 17.6035 7.38574C17.6035 4.76574 15.4735 2.63574 12.8535 2.63574Z" fill="url(#paint0_linear_1167_9733)"/>
<path d="M17.9335 14.7856C15.1435 12.9256 10.5935 12.9256 7.78348 14.7856C6.51348 15.6356 5.81348 16.7856 5.81348 18.0156C5.81348 19.2456 6.51348 20.3856 7.77348 21.2256C9.17348 22.1656 11.0135 22.6356 12.8535 22.6356C14.6935 22.6356 16.5335 22.1656 17.9335 21.2256C19.1935 20.3756 19.8935 19.2356 19.8935 17.9956C19.8835 16.7656 19.1935 15.6256 17.9335 14.7856Z" fill="url(#paint1_linear_1167_9733)"/>
<defs>
<linearGradient id="paint0_linear_1167_9733" x1="8.10352" y1="10.2886" x2="18.2457" y2="5.94974" gradientUnits="userSpaceOnUse">
<stop stop-color="#C09742"/>
<stop offset="0.0338367" stop-color="#AC7729"/>
<stop offset="0.0438367" stop-color="#AC7729"/>
<stop offset="0.168837" stop-color="#CFB159"/>
<stop offset="0.268837" stop-color="#AD7A22"/>
<stop offset="0.773837" stop-color="#AD7A22"/>
<stop offset="1" stop-color="#C09742"/>
</linearGradient>
<linearGradient id="paint1_linear_1167_9733" x1="5.81348" y1="20.8459" x2="18.3049" y2="12.7159" gradientUnits="userSpaceOnUse">
<stop stop-color="#C09742"/>
<stop offset="0.0338367" stop-color="#AC7729"/>
<stop offset="0.0438367" stop-color="#AC7729"/>
<stop offset="0.168837" stop-color="#CFB159"/>
<stop offset="0.268837" stop-color="#AD7A22"/>
<stop offset="0.773837" stop-color="#AD7A22"/>
<stop offset="1" stop-color="#C09742"/>
</linearGradient>
</defs>
</svg>
