<svg width="77" height="61" viewBox="0 0 77 61" fill="none" xmlns="http://www.w3.org/2000/svg">
<path opacity="0.2" d="M1.54515 60.4874C0.51505 55.7031 0 49.5518 0 42.0336C0 34.5154 2.91862 26.3992 8.75585 17.6849C14.7648 8.97059 20.2586 3.07563 25.2375 0C28.1561 1.19608 30.903 3.16107 33.4783 5.89496C31.5897 11.5336 26.2676 19.3936 17.5117 29.4748C15.2798 32.0378 13.9922 33.4902 13.6488 33.8319C19.6577 33.8319 23.7781 34.0028 26.01 34.3445C27.0401 37.591 27.5552 42.0336 27.5552 47.6723C27.5552 53.3109 27.3835 57.3263 27.0401 59.7185C23.2631 60.5728 19.2285 61 14.9365 61C10.8161 61 6.35228 60.8291 1.54515 60.4874ZM45.0669 60.4874C44.0368 55.7031 43.5217 49.5518 43.5217 42.0336C43.5217 34.5154 46.4404 26.3992 52.2776 17.6849C58.2865 8.97059 63.7804 3.07563 68.7592 0C71.6778 1.19608 74.4247 3.16107 77 5.89496C75.1115 11.5336 69.7035 19.3936 60.7759 29.4748C58.7157 32.0378 57.5139 33.4902 57.1706 33.8319C63.1795 33.8319 67.2999 34.0028 69.5318 34.3445C70.5619 37.591 71.0769 42.0336 71.0769 47.6723C71.0769 53.3109 70.9052 57.3263 70.5619 59.7185C66.7848 60.5728 62.7503 61 58.4582 61C54.3378 61 49.874 60.8291 45.0669 60.4874Z" fill="url(#paint0_linear_33_8275)"/>
<defs>
<linearGradient id="paint0_linear_33_8275" x1="6.49056e-07" y1="49.191" x2="75.3292" y2="8.55527" gradientUnits="userSpaceOnUse">
<stop stop-color="#EFE687"/>
<stop offset="0.328152" stop-color="#C09742"/>
<stop offset="0.60818" stop-color="#AC7729"/>
<stop offset="0.741407" stop-color="#CFB159"/>
<stop offset="0.876021" stop-color="#E2CE72"/>
<stop offset="1" stop-color="#AD7A22"/>
</linearGradient>
</defs>
</svg>
