<svg width="33" height="33" viewBox="0 0 33 33" fill="none" xmlns="http://www.w3.org/2000/svg">
<path d="M2.86362 18.3861C2.84787 18.5751 2.87154 18.7653 2.9331 18.9447C2.99467 19.1241 3.0928 19.2887 3.22129 19.4282C3.34978 19.5677 3.50582 19.6791 3.67955 19.7551C3.85328 19.8312 4.0409 19.8704 4.23056 19.8702H6.85139C7.21484 19.8702 7.5634 19.7258 7.82039 19.4689C8.07739 19.2119 8.22176 18.8633 8.22176 18.4999V4.79615C8.22176 4.43271 8.07739 4.08415 7.82039 3.82715C7.5634 3.57016 7.21484 3.42578 6.85139 3.42578H5.37139C5.02765 3.4258 4.69647 3.555 4.44352 3.78776C4.19058 4.02053 4.03435 4.33985 4.00582 4.68241L2.86362 18.3861ZM12.3329 18.2436C12.3329 18.8157 12.6892 19.3282 13.2065 19.5729C14.3364 20.1052 16.261 21.1762 17.1292 22.6247C18.2481 24.4904 18.4591 27.8622 18.4934 28.6344C18.4982 28.7427 18.4954 28.8509 18.5098 28.9578C18.6955 30.296 21.278 28.7331 22.2681 27.0804C22.8059 26.1842 22.8744 25.0064 22.8183 24.0862C22.7573 23.1029 22.4688 22.1519 22.1858 21.2077L21.5829 19.1953H29.0219C29.2337 19.1953 29.4425 19.1463 29.6321 19.052C29.8217 18.9578 29.9868 18.8209 30.1146 18.652C30.2424 18.4832 30.3294 18.2871 30.3686 18.079C30.4079 17.871 30.3984 17.6567 30.3409 17.4529L26.6615 4.42341C26.5802 4.13605 26.4074 3.88308 26.1692 3.703C25.9309 3.52291 25.6404 3.42557 25.3418 3.42578H13.7032C13.3398 3.42578 12.9912 3.57016 12.7342 3.82715C12.4773 4.08415 12.3329 4.43271 12.3329 4.79615V18.2436Z" fill="#483103" stroke="#483103" stroke-width="2.74074" stroke-linecap="round" stroke-linejoin="round"/>
</svg>
