<svg width="64" height="63" viewBox="0 0 64 63" fill="none" xmlns="http://www.w3.org/2000/svg">
<path opacity="0.4" d="M55.3888 29.19C55.3888 42.0263 46.07 54.0488 33.3388 57.5663C32.4725 57.8025 31.5275 57.8025 30.6612 57.5663C17.93 54.0488 8.61124 42.0263 8.61124 29.19V17.6663C8.61124 15.5138 10.2388 13.0726 12.26 12.2588L26.8812 6.27384C30.1625 4.93509 33.8637 4.93509 37.145 6.27384L51.7662 12.2588C53.7612 13.0726 55.415 15.5138 55.415 17.6663L55.3888 29.19Z" fill="url(#paint0_linear_33_8180)"/>
<path d="M38.5625 27.5625C38.5625 23.94 35.6225 21 32 21C28.3775 21 25.4375 23.94 25.4375 27.5625C25.4375 30.5025 27.38 32.9437 30.0312 33.7837V40.6875C30.0312 41.7638 30.9237 42.6562 32 42.6562C33.0763 42.6562 33.9688 41.7638 33.9688 40.6875V33.7837C36.62 32.9437 38.5625 30.5025 38.5625 27.5625Z" fill="url(#paint1_linear_33_8180)"/>
<defs>
<linearGradient id="paint0_linear_33_8180" x1="8.61124" y1="47.5851" x2="60.2246" y2="27.9114" gradientUnits="userSpaceOnUse">
<stop stop-color="#EFBF87"/>
<stop offset="0.103837" stop-color="#C09742"/>
<stop offset="0.458837" stop-color="#CFB159"/>
<stop offset="0.876021" stop-color="#E2CE72"/>
<stop offset="1" stop-color="#AD7A22"/>
</linearGradient>
<linearGradient id="paint1_linear_33_8180" x1="25.4375" y1="38.4638" x2="40.9721" y2="34.4404" gradientUnits="userSpaceOnUse">
<stop stop-color="#EFBF87"/>
<stop offset="0.103837" stop-color="#C09742"/>
<stop offset="0.458837" stop-color="#CFB159"/>
<stop offset="0.876021" stop-color="#E2CE72"/>
<stop offset="1" stop-color="#AD7A22"/>
</linearGradient>
</defs>
</svg>
