<svg width="24" height="24" viewBox="0 0 24 24" fill="none" xmlns="http://www.w3.org/2000/svg">
<g id="vuesax/bulk/shop">
<g id="shop">
<path id="Vector" opacity="0.4" d="M21.3699 11.3901V17.3801C21.3699 20.1401 19.1299 22.3801 16.3699 22.3801H7.62988C4.86988 22.3801 2.62988 20.1401 2.62988 17.3801V11.4601C3.38988 12.2801 4.46988 12.7501 5.63988 12.7501C6.89988 12.7501 8.10988 12.1201 8.86988 11.1101C9.54988 12.1201 10.7099 12.7501 11.9999 12.7501C13.2799 12.7501 14.4199 12.1501 15.1099 11.1501C15.8799 12.1401 17.0699 12.7501 18.3099 12.7501C19.5199 12.7501 20.6199 12.2601 21.3699 11.3901Z" fill="#292D32"/>
<path id="Vector_2" d="M14.9901 1.25H8.9901L8.2501 8.61C8.1901 9.29 8.2901 9.93 8.5401 10.51C9.1201 11.87 10.4801 12.75 12.0001 12.75C13.5401 12.75 14.8701 11.89 15.4701 10.52C15.6501 10.09 15.7601 9.59 15.7701 9.08V8.89L14.9901 1.25Z" fill="#292D32"/>
<path id="Vector_3" opacity="0.6" d="M22.36 8.27L22.07 5.5C21.65 2.48 20.28 1.25 17.35 1.25H13.51L14.25 8.75C14.26 8.85 14.27 8.96 14.27 9.15C14.33 9.67 14.49 10.15 14.73 10.58C15.45 11.9 16.85 12.75 18.31 12.75C19.64 12.75 20.84 12.16 21.59 11.12C22.19 10.32 22.46 9.31 22.36 8.27Z" fill="#292D32"/>
<path id="Vector_4" opacity="0.6" d="M6.58989 1.25C3.64989 1.25 2.28989 2.48 1.85989 5.53L1.58989 8.28C1.48989 9.35 1.77989 10.39 2.40989 11.2C3.16989 12.19 4.33989 12.75 5.63989 12.75C7.09989 12.75 8.49989 11.9 9.20989 10.6C9.46989 10.15 9.63989 9.63 9.68989 9.09L10.4699 1.26H6.58989V1.25Z" fill="#292D32"/>
<path id="Vector_5" d="M11.3501 16.66C10.0801 16.79 9.12012 17.87 9.12012 19.15V22.38H14.8701V19.5C14.8801 17.41 13.6501 16.42 11.3501 16.66Z" fill="#292D32"/>
</g>
</g>
</svg>
