<svg width="64" height="63" viewBox="0 0 64 63" fill="none" xmlns="http://www.w3.org/2000/svg">
<path opacity="0.4" d="M48.6701 51.66C47.2264 55.3612 43.7089 57.75 39.7451 57.75H24.2576C20.2676 57.75 16.7764 55.3612 15.3326 51.66C13.8889 47.9325 14.8864 43.8112 17.8264 41.1337L28.4576 31.5H35.5714L46.1763 41.1337C49.1164 43.8112 50.0876 47.9325 48.6701 51.66Z" fill="url(#paint0_linear_33_8185)"/>
<path d="M36.7775 47.6176H27.2225C26.225 47.6176 25.4375 46.8039 25.4375 45.8326C25.4375 44.8351 26.2513 44.0476 27.2225 44.0476H36.7775C37.775 44.0476 38.5625 44.8614 38.5625 45.8326C38.5625 46.8039 37.7487 47.6176 36.7775 47.6176Z" fill="url(#paint1_linear_33_8185)"/>
<path d="M48.6675 11.34C47.2238 7.63875 43.7063 5.25 39.7425 5.25H24.255C20.2913 5.25 16.7738 7.63875 15.33 11.34C13.9125 15.0675 14.8838 19.1888 17.85 21.8662L28.455 31.5H35.5688L46.1738 21.8662C49.1138 19.1888 50.085 15.0675 48.6675 11.34ZM36.7763 18.9788H27.2213C26.2238 18.9788 25.4363 18.165 25.4363 17.1938C25.4363 16.2225 26.25 15.4087 27.2213 15.4087H36.7763C37.7738 15.4087 38.5613 16.2225 38.5613 17.1938C38.5613 18.165 37.7475 18.9788 36.7763 18.9788Z" fill="url(#paint2_linear_33_8185)"/>
<defs>
<linearGradient id="paint0_linear_33_8185" x1="14.6787" y1="52.6683" x2="47.8689" y2="33.9544" gradientUnits="userSpaceOnUse">
<stop stop-color="#EFBF87"/>
<stop offset="0.103837" stop-color="#C09742"/>
<stop offset="0.458837" stop-color="#CFB159"/>
<stop offset="0.876021" stop-color="#E2CE72"/>
<stop offset="1" stop-color="#AD7A22"/>
</linearGradient>
<linearGradient id="paint1_linear_33_8185" x1="25.4375" y1="46.9265" x2="30.2167" y2="39.4177" gradientUnits="userSpaceOnUse">
<stop stop-color="#EFBF87"/>
<stop offset="0.103837" stop-color="#C09742"/>
<stop offset="0.458837" stop-color="#CFB159"/>
<stop offset="0.876021" stop-color="#E2CE72"/>
<stop offset="1" stop-color="#AD7A22"/>
</linearGradient>
<linearGradient id="paint2_linear_33_8185" x1="14.6885" y1="26.4183" x2="47.8726" y2="7.71451" gradientUnits="userSpaceOnUse">
<stop stop-color="#EFBF87"/>
<stop offset="0.103837" stop-color="#C09742"/>
<stop offset="0.458837" stop-color="#CFB159"/>
<stop offset="0.876021" stop-color="#E2CE72"/>
<stop offset="1" stop-color="#AD7A22"/>
</linearGradient>
</defs>
</svg>
