<svg width="24" height="18" viewBox="0 0 24 18" fill="none" xmlns="http://www.w3.org/2000/svg">
<path fill-rule="evenodd" clip-rule="evenodd" d="M22.1489 2.00474C22.5115 2.36965 22.7719 2.82338 22.904 3.32053C23.3926 5.15548 23.3926 8.98205 23.3926 8.98205C23.3926 8.98205 23.3926 12.8086 22.904 14.6436C22.7719 15.1407 22.5115 15.5945 22.1489 15.9594C21.7863 16.3243 21.3343 16.5875 20.838 16.7228C19.011 17.2141 11.7084 17.2141 11.7084 17.2141C11.7084 17.2141 4.40575 17.2141 2.57876 16.7228C2.08247 16.5875 1.63042 16.3243 1.26784 15.9594C0.905272 15.5945 0.644899 15.1407 0.512782 14.6436C0.0241699 12.8086 0.0241699 8.98205 0.0241699 8.98205C0.0241699 8.98205 0.0241699 5.15548 0.512782 3.32053C0.644899 2.82338 0.905272 2.36965 1.26784 2.00474C1.63042 1.63984 2.08247 1.37657 2.57876 1.24127C4.40575 0.75 11.7084 0.75 11.7084 0.75C11.7084 0.75 19.011 0.75 20.838 1.24127C21.3343 1.37657 21.7863 1.63984 22.1489 2.00474ZM9.31844 5.50361V12.4531L15.4261 8.97833L9.31844 5.50361Z" fill="#868686"/>
</svg>
